# Blender v2.79 (sub 0) OBJ File: ''
# www.blender.org
mtllib cubes.mtl
o Cube.001
v 2.305312 -0.722261 -3.304475
v 2.305312 -0.722261 -1.304475
v 0.305312 -0.722261 -1.304475
v 0.305312 -0.722261 -3.304475
v 2.305313 1.277739 -3.304474
v 2.305311 1.277739 -1.304474
v 0.305312 1.277739 -1.304475
v 0.305312 1.277739 -3.304475
vn 0.5773 -0.5773 -0.5773
vn 0.5773 -0.5773 0.5773
vn -0.5773 -0.5773 0.5773
vn -0.5773 -0.5773 -0.5773
vn 0.5773 0.5773 -0.5773
vn -0.5773 0.5773 -0.5773
vn -0.5773 0.5773 0.5773
vn 0.5773 0.5773 0.5773
usemtl Material
s 1
f 1//1 2//2 3//3 4//4
f 5//5 8//6 7//7 6//8
f 1//1 5//5 6//8 2//2
f 2//2 6//8 7//7 3//3
f 3//3 7//7 8//6 4//4
f 5//5 1//1 4//4 8//6
o Cube
v 1.000000 -1.000000 -1.000000
v 1.000000 -1.000000 1.000000
v -1.000000 -1.000000 1.000000
v -1.000000 -1.000000 -1.000000
v 1.000000 1.000000 -0.999999
v 0.999999 1.000000 1.000001
v -1.000000 1.000000 1.000000
v -1.000000 1.000000 -1.000000
vn 0.0000 -1.0000 0.0000
vn 0.0000 1.0000 0.0000
vn 1.0000 0.0000 0.0000
vn -0.0000 -0.0000 1.0000
vn -1.0000 -0.0000 -0.0000
vn 0.0000 0.0000 -1.0000
usemtl Material
s off
f 9//9 10//9 11//9 12//9
f 13//10 16//10 15//10 14//10
f 9//11 13//11 14//11 10//11
f 10//12 14//12 15//12 11//12
f 11//13 15//13 16//13 12//13
f 13//14 9//14 12//14 16//14
